<?xml version="1.0" encoding="UTF-8"?>
<svg width="80px" height="77px" viewBox="0 0 80 77" version="1.1" xmlns="http://www.w3.org/2000/svg" xmlns:xlink="http://www.w3.org/1999/xlink">
    <!-- Generator: Sketch 51.3 (57544) - http://www.bohemiancoding.com/sketch -->
    <title>settings copy 2</title>
    <desc>Created with Sketch.</desc>
    <defs>
        <rect id="path-1" x="0" y="0" width="80" height="80"></rect>
    </defs>
    <g id="Page-1" stroke="none" stroke-width="1" fill="none" fill-rule="evenodd">
        <g id="settings-copy-2" transform="translate(0.000000, -2.000000)">
            <mask id="mask-2" fill="white">
                <use xlink:href="#path-1"></use>
            </mask>
            <g id="Mask" fill-rule="nonzero"></g>
            <g id="track" mask="url(#mask-2)" fill="#FFFFFF" fill-rule="nonzero" stroke-width="2">
                <g transform="translate(0.000000, 3.000000)" id="Shape">
                    <path d="M62.65625,60 C59.4264063,60 56.6789063,62.096875 55.6982812,65 L12.34375,65 C8.12203125,65 4.6875,61.5654688 4.6875,57.34375 C4.6875,53.1220312 8.12203125,49.6875 12.34375,49.6875 L27.34375,49.6875 C34.1501563,49.6875 39.6875,44.1501562 39.6875,37.34375 C39.6875,30.5373437 34.1501563,25 27.34375,25 L14.3017188,25 C13.57,22.8334375 11.8540625,21.1175 9.6875,20.3857813 L9.6875,14.6875 L22.34375,14.6875 C23.638125,14.6875 24.6875,13.638125 24.6875,12.34375 L24.6875,2.34375 C24.6875,1.049375 23.638125,0 22.34375,0 L7.34375,0 C6.049375,0 5,1.049375 5,2.34375 L5,12.34375 L5,20.3857813 C2.096875,21.3664063 0,24.1139063 0,27.34375 C0,31.393125 3.294375,34.6875 7.34375,34.6875 C10.5735937,34.6875 13.3210937,32.590625 14.3017188,29.6875 L27.34375,29.6875 C31.5654688,29.6875 35,33.1220312 35,37.34375 C35,41.5654688 31.5654688,45 27.34375,45 L12.34375,45 C5.53734375,45 0,50.5373438 0,57.34375 C0,64.1501562 5.53734375,69.6875 12.34375,69.6875 L55.6982812,69.6875 C56.6789063,72.590625 59.4264063,74.6875 62.65625,74.6875 C66.705625,74.6875 70,71.393125 70,67.34375 C70,63.294375 66.705625,60 62.65625,60 Z M9.6875,4.6875 L20,4.6875 L20,10 L9.6875,10 L9.6875,4.6875 Z M7.34375,30 C5.8790625,30 4.6875,28.8084375 4.6875,27.34375 C4.6875,25.8790625 5.8790625,24.6875 7.34375,24.6875 C8.8084375,24.6875 10,25.8790625 10,27.34375 C10,28.8084375 8.8084375,30 7.34375,30 Z M62.65625,70 C61.1915625,70 60,68.8084375 60,67.34375 C60,65.8790625 61.1915625,64.6875 62.65625,64.6875 C64.1209375,64.6875 65.3125,65.8790625 65.3125,67.34375 C65.3125,68.8084375 64.1209375,70 62.65625,70 Z" stroke="#F8172F"></path>
                    <path d="M62.65625,15 C58.606875,15 55.3125,18.294375 55.3125,22.34375 C55.3125,26.393125 58.606875,29.6875 62.65625,29.6875 C66.705625,29.6875 70,26.393125 70,22.34375 C70,18.294375 66.705625,15 62.65625,15 Z M62.65625,25 C61.1915625,25 60,23.8084375 60,22.34375 C60,20.8790625 61.1915625,19.6875 62.65625,19.6875 C64.1209375,19.6875 65.3125,20.8790625 65.3125,22.34375 C65.3125,23.8084375 64.1209375,25 62.65625,25 Z" stroke="#FB0E25"></path>
                    <path d="M62.65625,5 C53.0928125,5 45.3125,12.7803125 45.3125,22.34375 C45.3125,27.5079687 47.5623437,32.319375 51.5040625,35.6273437 L60.568125,53.408125 C60.9682813,54.1932812 61.775,54.6875 62.65625,54.6875 C63.5375,54.6875 64.3442187,54.1932812 64.744375,53.408125 L73.8084375,35.6273438 C77.7501563,32.319375 80,27.5079687 80,22.34375 C80,12.7803125 72.2196875,5 62.65625,5 Z M70.4921875,32.2832813 C70.226875,32.4928125 70.0101562,32.7570312 69.8565625,33.0582813 L62.65625,47.183125 L55.4559375,33.0582812 C55.3025,32.7571875 55.085625,32.4928125 54.8203125,32.2832813 C51.756875,29.864375 50,26.2415625 50,22.34375 C50,15.365 55.6775,9.6875 62.65625,9.6875 C69.635,9.6875 75.3125,15.365 75.3125,22.34375 C75.3125,26.2415625 73.555625,29.864375 70.4921875,32.2832813 Z" stroke="#F8172F"></path>
                </g>
            </g>
        </g>
    </g>
</svg>