<?xml version="1.0" encoding="UTF-8"?>
<svg width="80px" height="75px" viewBox="0 0 80 75" version="1.1" xmlns="http://www.w3.org/2000/svg" xmlns:xlink="http://www.w3.org/1999/xlink">
    <!-- Generator: Sketch 51.3 (57544) - http://www.bohemiancoding.com/sketch -->
    <title>settings copy</title>
    <desc>Created with Sketch.</desc>
    <defs>
        <rect id="path-1" x="0" y="0" width="80" height="80"></rect>
    </defs>
    <g id="Page-1" stroke="none" stroke-width="1" fill="none" fill-rule="evenodd">
        <g id="settings-copy" transform="translate(0.000000, -3.000000)">
            <mask id="mask-2" fill="white">
                <use xlink:href="#path-1"></use>
            </mask>
            <g id="Mask" fill-rule="nonzero"></g>
            <g id="lock" mask="url(#mask-2)">
                <g transform="translate(0.000000, 3.000000)" id="Group">
                    <g>
                        <path d="M73.3333333,34.6666667 L42.6666667,34.6666667 L42.6666667,37.3333333 L73.3333333,37.3333333 C75.5423177,37.3333333 77.3333333,39.124349 77.3333333,41.3333333 L77.3333333,68 C77.3333333,70.2089843 75.5423177,72 73.3333333,72 L25.3333333,72 C23.124349,72 21.3333333,70.2089843 21.3333333,68 L21.3333333,58.6666667 L18.6666667,58.6666667 L18.6666667,68 C18.671224,71.6803385 21.6529948,74.6621093 25.3333333,74.6666667 L73.3333333,74.6666667 C77.0136718,74.6621093 79.9954427,71.6803385 80,68 L80,41.3333333 C79.9954427,37.6529948 77.0136718,34.671224 73.3333333,34.6666667 Z" id="Shape" fill="#FFFFFF" fill-rule="nonzero"></path>
                        <path d="M54.6666667,61.3333333 C54.655599,63.3854167 55.829427,65.2604167 57.6809897,66.1464843 C59.532552,67.032552 61.7285157,66.7708333 63.3203125,65.4746093 C65.4960937,67.2408853 68.6679687,67.0208333 70.5800782,64.9720052 C72.4921875,62.923177 72.4921875,59.7434897 70.5800782,57.6946615 C68.6679687,55.6458333 65.4960937,55.4257813 63.3203125,57.1920573 C61.7285157,55.8958333 59.532552,55.6341147 57.6809897,56.5201823 C55.829427,57.40625 54.655599,59.28125 54.6666667,61.3333333 Z M69.3333333,61.3333333 C69.3333333,62.8059897 68.139323,64 66.6666667,64 C66.0292968,64.0019532 65.4134115,63.7714843 64.9335937,63.3522135 C65.470052,62.0598958 65.470052,60.6067708 64.9335937,59.3144532 C65.4134115,58.8951823 66.0292968,58.6647135 66.6666667,58.6666667 C68.139323,58.6666667 69.3333333,59.860677 69.3333333,61.3333333 Z M60,58.6666667 C61.4726563,58.6666667 62.6666667,59.860677 62.6666667,61.3333333 C62.6666667,62.8059897 61.4726563,64 60,64 C58.5273437,64 57.3333333,62.8059897 57.3333333,61.3333333 C57.3333333,59.860677 58.5273437,58.6666667 60,58.6666667 Z" id="Shape" fill="#FFFFFF" fill-rule="nonzero"></path>
                        <polygon id="Shape" fill="#FFFFFF" fill-rule="nonzero" points="26.6666667 58.6666667 29.3333333 58.6666667 29.3333333 61.3333333 26.6666667 61.3333333"></polygon>
                        <polygon id="Shape" fill="#FFFFFF" fill-rule="nonzero" points="32 58.6666667 34.6666667 58.6666667 34.6666667 61.3333333 32 61.3333333"></polygon>
                        <polygon id="Shape" fill="#FFFFFF" fill-rule="nonzero" points="37.3333333 58.6666667 40 58.6666667 40 61.3333333 37.3333333 61.3333333"></polygon>
                        <polygon id="Shape" fill="#FFFFFF" fill-rule="nonzero" points="42.6666667 58.6666667 45.3333333 58.6666667 45.3333333 61.3333333 42.6666667 61.3333333"></polygon>
                        <polygon id="Shape" fill="#FFFFFF" fill-rule="nonzero" points="26.6666667 64 45.3333333 64 45.3333333 66.6666667 26.6666667 66.6666667"></polygon>
                        <path d="M40,52 L40,22.6666667 C40,21.9303385 39.4029948,21.3333333 38.6666667,21.3333333 L36,21.3333333 L36,12 C35.9921875,5.375651 30.624349,0.0078125 24,0 L16,0 C9.375651,0.0078125 4.0078125,5.375651 4,12 L4,21.3333333 L1.33333333,21.3333333 C0.597005167,21.3333333 0,21.9303385 0,22.6666667 L0,52 C0,54.2089843 1.79101567,56 4,56 L36,56 C38.2089843,56 40,54.2089843 40,52 Z M6.66666667,12 C6.672526,6.84765633 10.8476563,2.672526 16,2.66666667 L24,2.66666667 C29.1523437,2.672526 33.327474,6.84765633 33.3333333,12 L33.3333333,21.3333333 L6.66666667,21.3333333 L6.66666667,12 Z M2.66666667,52 L2.66666667,24 L37.3333333,24 L37.3333333,52 C37.3333333,52.7363282 36.7363282,53.3333333 36,53.3333333 L4,53.3333333 C3.26367183,53.3333333 2.66666667,52.7363282 2.66666667,52 Z" id="Shape" fill="#FFFFFF" fill-rule="nonzero"></path>
                        <path d="M20,33.3333333 C18.0540365,33.329427 16.389323,34.7298177 16.0592448,36.6477865 C15.7298177,38.5657552 16.8313802,40.4414063 18.6666667,41.0878907 L18.6666667,46.6666667 L21.3333333,46.6666667 L21.3333333,41.0878907 C23.1686198,40.4414063 24.2701823,38.5657552 23.9407552,36.6477865 C23.610677,34.7298177 21.9459635,33.329427 20,33.3333333 Z M20,38.6666667 C19.2636718,38.6666667 18.6666667,38.0696615 18.6666667,37.3333333 C18.6666667,36.5970052 19.2636718,36 20,36 C20.7363282,36 21.3333333,36.5970052 21.3333333,37.3333333 C21.3333333,38.0696615 20.7363282,38.6666667 20,38.6666667 Z" id="Shape" fill="#FFFFFF" fill-rule="nonzero"></path>
                    </g>
                </g>
            </g>
        </g>
    </g>
</svg>