<?xml version="1.0" encoding="UTF-8"?>
<svg width="80px" height="80px" viewBox="0 0 80 80" version="1.1" xmlns="http://www.w3.org/2000/svg" xmlns:xlink="http://www.w3.org/1999/xlink">
    <!-- Generator: Sketch 51.3 (57544) - http://www.bohemiancoding.com/sketch -->
    <title>settings</title>
    <desc>Created with Sketch.</desc>
    <defs>
        <rect id="path-1" x="0" y="0" width="80" height="80"></rect>
    </defs>
    <g id="Page-1" stroke="none" stroke-width="1" fill="none" fill-rule="evenodd">
        <g id="settings">
            <mask id="mask-2" fill="white">
                <use xlink:href="#path-1"></use>
            </mask>
            <g id="Mask" fill-rule="nonzero"></g>
            <g mask="url(#mask-2)" fill="#FFFFFF" fill-rule="nonzero" id="Shape" stroke-width="0.8">
                <path d="M39.1673469,0.351020408 L35.1673469,2 C33.0285714,2.88163265 32.0163265,5.34693878 32.8979592,7.46938776 L33.9265306,9.95102041 C31.9183673,11.4367347 30.1714286,13.2 28.6693878,15.2081633 L26.1877551,14.1795918 C25.1591837,13.755102 24.0163265,13.755102 22.9877551,14.1795918 C21.9591837,14.6040816 21.1428571,15.4204082 20.7183673,16.4489796 L19.0530612,20.4489796 C18.1714286,22.5877551 19.1836735,25.0367347 21.322449,25.9183673 L24.9959184,27.4367347 C25.8285714,27.7795918 26.7591837,27.3877551 27.1020408,26.555102 C27.444898,25.722449 27.0530612,24.7918367 26.2204082,24.4489796 L22.5469388,22.9306122 C22.0571429,22.7346939 21.8285714,22.1632653 22.0244898,21.6734694 L23.6897959,17.6734694 C23.7877551,17.444898 23.9673469,17.2489796 24.2122449,17.1510204 C24.4408163,17.0530612 24.7020408,17.0530612 24.9469388,17.1510204 L28.6204082,18.6693878 C29.3387755,18.9632653 30.155102,18.7183673 30.5795918,18.0816327 C32.2285714,15.6 34.3183673,13.5102041 36.8,11.8612245 C37.4367347,11.4367347 37.6979592,10.6040816 37.4040816,9.90204082 L35.8857143,6.22857143 C35.6897959,5.73877551 35.9183673,5.18367347 36.4081633,4.97142857 L40.4081633,3.32244898 C40.6367347,3.2244898 40.8979592,3.2244898 41.1428571,3.32244898 C41.3714286,3.42040816 41.5673469,3.6 41.6653061,3.84489796 L43.1836735,7.51836735 C43.477551,8.23673469 44.2285714,8.64489796 44.9959184,8.48163265 C47.9020408,7.89387755 50.8734694,7.91020408 53.7795918,8.48163265 C54.5306122,8.62857143 55.2979592,8.22040816 55.5918367,7.51836735 L57.1102041,3.84489796 C57.3061224,3.35510204 57.877551,3.12653061 58.3673469,3.32244898 L62.3673469,4.9877551 C62.5959184,5.08571429 62.7918367,5.26530612 62.8897959,5.51020408 C62.9877551,5.73877551 62.9877551,6 62.8897959,6.24489796 L61.3714286,9.91836735 C61.077551,10.6367347 61.322449,11.4530612 61.9591837,11.877551 C64.4408163,13.5265306 66.5306122,15.6163265 68.1795918,18.0979592 C68.6040816,18.7346939 69.4367347,18.9959184 70.1387755,18.7020408 L73.8122449,17.1836735 C74.0571429,17.0857143 74.3020408,17.0857143 74.5469388,17.1836735 C74.7755102,17.2816327 74.9714286,17.4612245 75.0693878,17.7061224 L76.7183673,21.7061224 C76.8163265,21.9346939 76.8163265,22.1959184 76.7183673,22.4408163 C76.6204082,22.6693878 76.4408163,22.8653061 76.1959184,22.9632653 L72.522449,24.4816327 C71.8040816,24.7755102 71.4122449,25.5265306 71.5591837,26.2938776 C72.1469388,29.2 72.1306122,32.1714286 71.5591837,35.077551 C71.4122449,35.8285714 71.8204082,36.5959184 72.522449,36.8897959 L76.1959184,38.4081633 C76.6857143,38.6040816 76.9142857,39.1755102 76.7183673,39.6653061 L75.0530612,43.6653061 C74.8571429,44.155102 74.2857143,44.3836735 73.7959184,44.1877551 L70.122449,42.6693878 C69.4040816,42.3755102 68.5877551,42.6204082 68.1632653,43.2571429 C66.5142857,45.7387755 64.4244898,47.8285714 61.9428571,49.477551 C61.3061224,49.9020408 61.044898,50.7346939 61.3387755,51.4367347 L62.8571429,55.1102041 C62.955102,55.3387755 62.955102,55.6 62.8571429,55.844898 C62.7591837,56.0734694 62.5795918,56.2693878 62.3346939,56.3673469 L58.3346939,58.0163265 C58.1061224,58.1142857 57.844898,58.1142857 57.6,58.0163265 C57.3714286,57.9183673 57.1755102,57.7387755 57.077551,57.4938776 L55.5591837,53.8204082 C55.2163265,52.9877551 54.2693878,52.5959184 53.4530612,52.9387755 C52.6204082,53.2816327 52.2285714,54.2285714 52.5714286,55.044898 L54.0897959,58.7183673 C54.5142857,59.7469388 55.3306122,60.5632653 56.3591837,60.9877551 C56.8816327,61.2 57.4204082,61.3142857 57.9591837,61.3142857 C58.4979592,61.3142857 59.0530612,61.2 59.5591837,60.9877551 L63.5591837,59.3387755 C64.5877551,58.9142857 65.4040816,58.0979592 65.8285714,57.0693878 C66.2530612,56.0408163 66.2530612,54.8979592 65.8285714,53.8693878 L64.8,51.3877551 C66.8081633,49.9020408 68.555102,48.1387755 70.0571429,46.1306122 L72.5387755,47.1591837 C74.677551,48.0408163 77.1265306,47.0285714 78.0081633,44.8897959 L79.6734694,40.8897959 C80.555102,38.7510204 79.5428571,36.3020408 77.4040816,35.4204082 L74.922449,34.3918367 C75.2816327,31.9265306 75.2816327,29.4285714 74.922449,26.9632653 L77.4040816,25.9346939 C78.4326531,25.5102041 79.2489796,24.6938776 79.6734694,23.6653061 C80.0979592,22.6367347 80.0979592,21.4938776 79.6734694,20.4653061 L78.0244898,16.4653061 C77.6,15.4367347 76.7836735,14.6204082 75.755102,14.1959184 C74.7265306,13.7714286 73.5836735,13.7714286 72.555102,14.1959184 L70.0734694,15.2244898 C68.5877551,13.2163265 66.8244898,11.4530612 64.8326531,9.96734694 L65.8612245,7.48571429 C66.2857143,6.45714286 66.2857143,5.31428571 65.8612245,4.28571429 C65.4367347,3.25714286 64.6204082,2.44081633 63.5918367,2.01632653 L59.5918367,0.351020408 C57.4530612,-0.530612245 55.0040816,0.481632653 54.122449,2.62040816 L53.0938776,5.10204082 C50.6285714,4.74285714 48.1306122,4.74285714 45.6653061,5.10204082 L44.6367347,2.62040816 C44.2122449,1.59183673 43.3959184,0.775510204 42.3673469,0.351020408 C41.3387755,-0.0734693878 40.1959184,-0.0734693878 39.1673469,0.351020408 Z" stroke="#F8172F"></path>
                <path d="M62.5142857,30.5714286 C62.4653061,23.355102 56.5714286,17.5265306 49.3714286,17.5265306 C49.3387755,17.5265306 49.3061224,17.5265306 49.2734694,17.5265306 C45.7632653,17.5591837 42.4653061,18.9469388 40,21.444898 C37.5346939,23.9428571 36.1959184,27.2571429 36.2122449,30.7673469 C36.2122449,31.6489796 36.9469388,32.3673469 37.8285714,32.3673469 L37.844898,32.3673469 C38.7428571,32.3673469 39.4612245,31.6326531 39.444898,30.7346939 C39.4285714,28.0897959 40.4408163,25.5918367 42.3020408,23.6979592 C44.1632653,21.8040816 46.644898,20.7591837 49.2897959,20.7428571 C49.3061224,20.7428571 49.3387755,20.7428571 49.355102,20.7428571 C54.7918367,20.7428571 59.2326531,25.1510204 59.2653061,30.5877551 C59.2979592,36.0571429 54.8897959,40.5306122 49.4204082,40.5795918 C48.522449,40.5795918 47.8040816,41.3142857 47.8204082,42.2122449 C47.8204082,43.0938776 48.555102,43.8122449 49.4367347,43.8122449 C49.4367347,43.8122449 49.4367347,43.8122449 49.4530612,43.8122449 C56.7183673,43.7632653 62.5632653,37.8204082 62.5142857,30.5714286 Z" stroke="#F8172F"></path>
                <path d="M22.0897959,79.3061224 L25.2408163,79.3061224 C27.1673469,79.3061224 28.7346939,77.7387755 28.7346939,75.8122449 L28.7346939,74.1959184 C30.3020408,73.7714286 31.8040816,73.1510204 33.2081633,72.3346939 L34.3510204,73.477551 C35.0040816,74.1306122 35.8857143,74.5061224 36.8163265,74.5061224 C37.7469388,74.5061224 38.6285714,74.1469388 39.2816327,73.477551 L41.5020408,71.2571429 C42.155102,70.6040816 42.5306122,69.722449 42.5306122,68.7918367 C42.5306122,67.8612245 42.1714286,66.9795918 41.5020408,66.3265306 L40.3591837,65.1836735 C41.1755102,63.7795918 41.7959184,62.277551 42.2204082,60.7102041 L43.8367347,60.7102041 C45.7632653,60.7102041 47.3306122,59.1428571 47.3306122,57.2163265 L47.3306122,54.0653061 C47.3306122,52.1387755 45.7632653,50.5714286 43.8367347,50.5714286 L42.2204082,50.5714286 C41.7959184,49.0040816 41.1755102,47.5020408 40.3591837,46.0979592 L41.5020408,44.955102 C42.155102,44.3020408 42.5306122,43.4204082 42.5306122,42.4897959 C42.5306122,41.5591837 42.1714286,40.677551 41.5020408,40.0244898 L39.2816327,37.8040816 C38.6285714,37.1510204 37.7469388,36.7755102 36.8163265,36.7755102 C35.8857143,36.7755102 35.0040816,37.1346939 34.3510204,37.8040816 L33.2081633,38.9469388 C31.8040816,38.1306122 30.3020408,37.5102041 28.7346939,37.0857143 L28.7346939,35.4693878 C28.7346939,33.5428571 27.1673469,31.9755102 25.2408163,31.9755102 L22.0897959,31.9755102 C20.1632653,31.9755102 18.5959184,33.5428571 18.5959184,35.4693878 L18.5959184,37.0857143 C17.0285714,37.5102041 15.5265306,38.1306122 14.122449,38.9469388 L12.9795918,37.8040816 C12.3265306,37.1510204 11.444898,36.7755102 10.5142857,36.7755102 C9.58367347,36.7755102 8.70204082,37.1346939 8.04897959,37.8040816 L5.82857143,40.0244898 C4.47346939,41.3795918 4.47346939,43.6 5.82857143,44.955102 L6.97142857,46.0979592 C6.15510204,47.5020408 5.53469388,49.0040816 5.11020408,50.5714286 L3.49387755,50.5714286 C1.56734694,50.5714286 -8.52651283e-14,52.1387755 -8.52651283e-14,54.0653061 L-8.52651283e-14,57.2163265 C-8.52651283e-14,59.1428571 1.56734694,60.7102041 3.49387755,60.7102041 L5.11020408,60.7102041 C5.53469388,62.277551 6.15510204,63.7795918 6.97142857,65.1836735 L5.82857143,66.3265306 C4.47346939,67.6816327 4.47346939,69.9020408 5.82857143,71.2571429 L8.04897959,73.477551 C8.70204082,74.1306122 9.58367347,74.5061224 10.5142857,74.5061224 C11.444898,74.5061224 12.3265306,74.1469388 12.9795918,73.477551 L14.122449,72.3346939 C15.5265306,73.1510204 17.0285714,73.7714286 18.5959184,74.1959184 L18.5959184,75.8122449 C18.6122449,77.7387755 20.1795918,79.3061224 22.0897959,79.3061224 Z M14.7918367,68.955102 C14.5142857,68.7755102 14.2040816,68.677551 13.8938776,68.677551 C13.4693878,68.677551 13.0612245,68.8408163 12.7510204,69.1510204 L10.7102041,71.1918367 C10.644898,71.2571429 10.5795918,71.2734694 10.5306122,71.2734694 C10.4816327,71.2734694 10.4163265,71.2571429 10.3510204,71.1918367 L8.13061224,68.9714286 C8.03265306,68.8734694 8.03265306,68.7102041 8.13061224,68.6122449 L10.1714286,66.5714286 C10.7102041,66.0326531 10.8081633,65.1673469 10.3673469,64.5306122 C9.19183673,62.7836735 8.39183673,60.8408163 7.98367347,58.7836735 C7.83673469,58.0326531 7.16734694,57.477551 6.4,57.477551 L3.51020408,57.477551 C3.36326531,57.477551 3.24897959,57.3632653 3.24897959,57.2163265 L3.24897959,54.0653061 C3.24897959,53.9183673 3.36326531,53.8040816 3.51020408,53.8040816 L6.4,53.8040816 C7.16734694,53.8040816 7.83673469,53.2653061 7.98367347,52.4979592 C8.39183673,50.4408163 9.19183673,48.4979592 10.3673469,46.7510204 C10.7918367,46.1142857 10.7102041,45.2489796 10.1714286,44.7102041 L8.13061224,42.6693878 C8.03265306,42.5714286 8.03265306,42.4081633 8.13061224,42.3102041 L10.3510204,40.0897959 C10.4163265,40.0244898 10.4816327,40.0081633 10.5306122,40.0081633 C10.5795918,40.0081633 10.644898,40.0244898 10.7102041,40.0897959 L12.7510204,42.1632653 C13.2897959,42.7020408 14.155102,42.8 14.7918367,42.3591837 C16.5387755,41.1836735 18.4816327,40.3836735 20.5387755,39.9755102 C21.2897959,39.8285714 21.844898,39.1591837 21.844898,38.3918367 L21.844898,35.5020408 C21.844898,35.355102 21.9591837,35.2408163 22.1061224,35.2408163 L25.2571429,35.2408163 C25.4040816,35.2408163 25.5183673,35.355102 25.5183673,35.5020408 L25.5183673,38.3918367 C25.5183673,39.1591837 26.0571429,39.8285714 26.8244898,39.9755102 C28.8816327,40.3836735 30.8244898,41.1836735 32.5714286,42.3591837 C33.2081633,42.7836735 34.0734694,42.7020408 34.6122449,42.1632653 L36.6530612,40.122449 C36.7183673,40.0571429 36.7836735,40.0408163 36.8326531,40.0408163 C36.8816327,40.0408163 36.9469388,40.0571429 37.0122449,40.122449 L39.2326531,42.3428571 C39.2979592,42.4081633 39.3142857,42.4734694 39.3142857,42.522449 C39.3142857,42.5714286 39.2979592,42.6367347 39.2326531,42.7020408 L37.1918367,44.7428571 C36.6530612,45.2816327 36.555102,46.1469388 36.9959184,46.7836735 C38.1714286,48.5306122 38.9714286,50.4734694 39.3795918,52.5306122 C39.5265306,53.2816327 40.1959184,53.8367347 40.9632653,53.8367347 L43.8530612,53.8367347 C44,53.8367347 44.1142857,53.9510204 44.1142857,54.0979592 L44.1142857,57.2489796 C44.1142857,57.3959184 44,57.5102041 43.8530612,57.5102041 L40.9632653,57.5102041 C40.1959184,57.5102041 39.5265306,58.0489796 39.3795918,58.8163265 C38.9714286,60.8734694 38.1714286,62.8163265 36.9959184,64.5632653 C36.5714286,65.2 36.6530612,66.0653061 37.1918367,66.6040816 L39.2326531,68.644898 C39.2979592,68.7102041 39.3142857,68.7755102 39.3142857,68.8244898 C39.3142857,68.8734694 39.2979592,68.9387755 39.2326531,69.0040816 L37.0122449,71.2244898 C36.9469388,71.2897959 36.8816327,71.3061224 36.8326531,71.3061224 C36.7836735,71.3061224 36.7183673,71.2897959 36.6530612,71.2244898 L34.6122449,69.1836735 C34.0734694,68.644898 33.2081633,68.5469388 32.5714286,68.9877551 C30.8244898,70.1632653 28.8816327,70.9632653 26.8244898,71.3714286 C26.0734694,71.5183673 25.5183673,72.1877551 25.5183673,72.955102 L25.5183673,75.844898 C25.5183673,75.9918367 25.4040816,76.1061224 25.2571429,76.1061224 L22.1061224,76.1061224 C21.9591837,76.1061224 21.844898,75.9918367 21.844898,75.844898 L21.844898,72.955102 C21.844898,72.1877551 21.3061224,71.5183673 20.5387755,71.3714286 C18.4816327,70.9306122 16.5387755,70.1306122 14.7918367,68.955102 Z" stroke="#F8172F"></path>
                <path d="M33.2571429,55.6653061 C33.2571429,50.3755102 28.9469388,46.0653061 23.6571429,46.0653061 C18.3673469,46.0653061 14.0734694,50.3755102 14.0734694,55.6653061 C14.0734694,60.955102 18.3836735,65.2653061 23.6734694,65.2653061 C28.9632653,65.2653061 33.2571429,60.955102 33.2571429,55.6653061 Z M17.3061224,55.6653061 C17.3061224,52.155102 20.1632653,49.2979592 23.6734694,49.2979592 C27.1836735,49.2979592 30.0408163,52.155102 30.0408163,55.6653061 C30.0408163,59.1755102 27.1836735,62.0326531 23.6734694,62.0326531 C20.1632653,62.0326531 17.3061224,59.1591837 17.3061224,55.6653061 Z" stroke="#FFFFFF"></path>
            </g>
        </g>
    </g>
</svg>