<?xml version="1.0" encoding="UTF-8"?>
<svg width="80px" height="55px" viewBox="0 0 80 55" version="1.1" xmlns="http://www.w3.org/2000/svg" xmlns:xlink="http://www.w3.org/1999/xlink">
    <!-- Generator: Sketch 51.3 (57544) - http://www.bohemiancoding.com/sketch -->
    <title>settings copy 3</title>
    <desc>Created with Sketch.</desc>
    <defs>
        <rect id="path-1" x="0" y="0" width="80" height="80"></rect>
    </defs>
    <g id="Page-1" stroke="none" stroke-width="1" fill="none" fill-rule="evenodd">
        <g id="settings-copy-3" transform="translate(0.000000, -13.000000)">
            <mask id="mask-2" fill="white">
                <use xlink:href="#path-1"></use>
            </mask>
            <g id="Mask" fill-rule="nonzero"></g>
            <g id="credit-card" mask="url(#mask-2)" fill="#FFFFFF" fill-rule="nonzero">
                <g transform="translate(0.000000, 13.000000)" id="Shape">
                    <path d="M57.5,33.75 L57.5,3.75 C57.5,1.68234375 55.8176562,0 53.75,0 L3.75,0 C1.68234375,0 0,1.68234375 0,3.75 L0,33.75 C0,35.8176562 1.68234375,37.5 3.75,37.5 L53.75,37.5 C55.8176562,37.5 57.5,35.8176562 57.5,33.75 Z M2.5,33.75 L2.5,3.75 C2.5,3.06078125 3.06078125,2.5 3.75,2.5 L53.75,2.5 C54.4392188,2.5 55,3.06078125 55,3.75 L55,33.75 C55,34.4392187 54.4392188,35 53.75,35 L3.75,35 C3.06078125,35 2.5,34.4392187 2.5,33.75 Z"></path>
                    <path d="M76.25,17.5 L61.25,17.5 C60.5596875,17.5 60,18.0596875 60,18.75 C60,19.4403125 60.5596875,20 61.25,20 L76.25,20 C76.9392188,20 77.5,20.5607812 77.5,21.25 L77.5,27.5 L61.25,27.5 C60.5596875,27.5 60,28.0596875 60,28.75 C60,29.4403125 60.5596875,30 61.25,30 L77.5,30 L77.5,51.25 C77.5,51.9392188 76.9392188,52.5 76.25,52.5 L26.25,52.5 C25.5607812,52.5 25,51.9392188 25,51.25 L25,41.25 C25,40.5596875 24.4403125,40 23.75,40 C23.0596875,40 22.5,40.5596875 22.5,41.25 L22.5,51.25 C22.5,53.3176562 24.1823438,55 26.25,55 L76.25,55 C78.3176562,55 80,53.3176562 80,51.25 L80,21.25 C80,19.1823438 78.3176562,17.5 76.25,17.5 Z"></path>
                    <path d="M26.25,26.25 L20,26.25 C19.3096875,26.25 18.75,26.8096875 18.75,27.5 C18.75,28.1903125 19.3096875,28.75 20,28.75 L26.25,28.75 C26.9403125,28.75 27.5,28.1903125 27.5,27.5 C27.5,26.8096875 26.9403125,26.25 26.25,26.25 Z"></path>
                    <path d="M15,26.25 L8.75,26.25 C8.0596875,26.25 7.5,26.8096875 7.5,27.5 C7.5,28.1903125 8.0596875,28.75 8.75,28.75 L15,28.75 C15.6903125,28.75 16.25,28.1903125 16.25,27.5 C16.25,26.8096875 15.6903125,26.25 15,26.25 Z"></path>
                    <path d="M48.75,26.25 L42.5,26.25 C41.8096875,26.25 41.25,26.8096875 41.25,27.5 C41.25,28.1903125 41.8096875,28.75 42.5,28.75 L48.75,28.75 C49.4403125,28.75 50,28.1903125 50,27.5 C50,26.8096875 49.4403125,26.25 48.75,26.25 Z"></path>
                    <path d="M37.5,26.25 L31.25,26.25 C30.5596875,26.25 30,26.8096875 30,27.5 C30,28.1903125 30.5596875,28.75 31.25,28.75 L37.5,28.75 C38.1903125,28.75 38.75,28.1903125 38.75,27.5 C38.75,26.8096875 38.1903125,26.25 37.5,26.25 Z"></path>
                    <path d="M13.75,6.25 L10,6.25 C7.9321875,6.25 6.25,7.93234375 6.25,10 L6.25,11.25 C6.25,13.3176563 7.9321875,15 10,15 L13.75,15 C15.8178125,15 17.5,13.3176563 17.5,11.25 L17.5,10 C17.5,7.93234375 15.8178125,6.25 13.75,6.25 Z M15,11.25 C15,11.9392188 14.4392188,12.5 13.75,12.5 L10,12.5 C9.31078125,12.5 8.75,11.9392188 8.75,11.25 L8.75,10 C8.75,9.31078125 9.31078125,8.75 10,8.75 L13.75,8.75 C14.4392188,8.75 15,9.31078125 15,10 L15,11.25 Z"></path>
                    <path d="M46.25,6.25 C44.7576563,6.25 43.416875,6.90796875 42.5,7.948125 C41.583125,6.90796875 40.2423437,6.25 38.75,6.25 C35.9929687,6.25 33.75,8.49296875 33.75,11.25 C33.75,14.0070313 35.9929687,16.25 38.75,16.25 C40.2423437,16.25 41.583125,15.5920312 42.5,14.551875 C43.416875,15.5920313 44.7576563,16.25 46.25,16.25 C49.0070312,16.25 51.25,14.0070313 51.25,11.25 C51.25,8.49296875 49.0070312,6.25 46.25,6.25 Z M38.75,13.75 C37.3715625,13.75 36.25,12.6284375 36.25,11.25 C36.25,9.8715625 37.3715625,8.75 38.75,8.75 C40.1284375,8.75 41.25,9.8715625 41.25,11.25 C41.25,12.6284375 40.1284375,13.75 38.75,13.75 Z M46.25,13.75 C44.8715625,13.75 43.75,12.6284375 43.75,11.25 C43.75,9.8715625 44.8715625,8.75 46.25,8.75 C47.6284375,8.75 48.75,9.8715625 48.75,11.25 C48.75,12.6284375 47.6284375,13.75 46.25,13.75 Z"></path>
                    <path d="M71.25,40 L47.5,40 C46.8096875,40 46.25,40.5596875 46.25,41.25 C46.25,41.9403125 46.8096875,42.5 47.5,42.5 L71.25,42.5 C71.9403125,42.5 72.5,41.9403125 72.5,41.25 C72.5,40.5596875 71.9403125,40 71.25,40 Z"></path>
                    <path d="M71.25,45 L56.25,45 C55.5596875,45 55,45.5596875 55,46.25 C55,46.9403125 55.5596875,47.5 56.25,47.5 L71.25,47.5 C71.9403125,47.5 72.5,46.9403125 72.5,46.25 C72.5,45.5596875 71.9403125,45 71.25,45 Z"></path>
                </g>
            </g>
        </g>
    </g>
</svg>